<svg xmlns="http://www.w3.org/2000/svg" viewBox="0 0 80 80">
  <circle cx="74.4" cy="57.1" r="5.4" fill="#f7941d" />
  <circle cx="22.7" cy="5.4" r="5.4" fill="#f7941d" fill-opacity=".6" />
  <circle cx="5.4" cy="57.1" r="5.4" fill="#f7941d" fill-opacity=".6" />
  <path fill="#f7941d"
    d="m42 27.7 5.1 5.1q.6.6 1.5.6c.5 0 1.1-.2 1.5-.6.8-.8.8-2.1 0-3L45 24.7c.5-1.3.5-2.8 0-4.1l10.1-10.1c2 .8 4.3.4 5.9-1.2 2.1-2.1 2.1-5.6 0-7.7s-5.6-2.1-7.7 0c-1.6 1.6-2 3.9-1.2 5.9L42 17.6c-2-.8-4.3-.4-5.9 1.2-2.1 2.1-2.1 5.6 0 7.7 1.5 1.6 3.9 2 5.9 1.2" />
  <path fill="#f7941d" fill-opacity=".6"
    d="m29.8 64.3-5.1 5.1c-2-.8-4.3-.4-5.9 1.2-2.1 2.1-2.1 5.6 0 7.7s5.6 2.1 7.7 0c1.6-1.6 2-3.9 1.2-5.9l5.1-5.1c.8-.8.8-2.1 0-3-.9-.8-2.2-.8-3 0" />
  <path fill="#f7941d"
    d="m64.3 64.3-5.1 5.1c-2-.8-4.3-.4-5.9 1.2-2.1 2.1-2.1 5.6 0 7.7s5.6 2.1 7.7 0c1.6-1.6 2-3.9 1.2-5.9l5.1-5.1c.8-.8.8-2.1 0-3-.9-.8-2.2-.8-3 0" />
  <path fill="#f7941d" fill-opacity=".6"
    d="M32.8 29.8c-.8-.8-2.1-.8-3 0l-5.1 5.1c-2-.8-4.3-.4-5.9 1.2-2.1 2.1-2.1 5.6 0 7.7 1.6 1.6 3.9 2 5.9 1.2l5.1 5.1q.6.6 1.5.6c.5 0 1.1-.2 1.5-.6.8-.8.8-2.1 0-3L27.7 42c.5-1.3.5-2.8 0-4.1l5.1-5.1c.8-.9.8-2.2 0-3m-22.3-5.1c.8-2 .4-4.3-1.2-5.9-2.1-2.1-5.6-2.1-7.7 0s-2.1 5.6 0 7.7c1.6 1.6 3.9 2 5.9 1.2l5.1 5.1q.6.6 1.5.6c.5 0 1.1-.2 1.5-.6.8-.8.8-2.1 0-3z" />
  <path fill="#f7941d"
    d="M62.2 42c.5-1.3.5-2.8 0-4.1l10.1-10.1c2 .8 4.3.4 5.9-1.2 2.1-2.1 2.1-5.6 0-7.7s-5.6-2.1-7.7 0c-1.6 1.6-2 3.9-1.2 5.9L59.2 34.9c-2-.8-4.3-.4-5.9 1.2s-2 3.9-1.2 5.9L42 52.1c-2-.8-4.3-.4-5.9 1.2-2.1 2.1-2.1 5.6 0 7.7 1.6 1.6 3.9 2 5.9 1.2l5.1 5.1q.6.6 1.5.6c.5 0 1.1-.2 1.5-.6.8-.8.8-2.1 0-3L45 59.2c.5-1.3.5-2.8 0-4.1L55.1 45c1.3.5 2.8.5 4.1 0l5.1 5.1q.6.6 1.5.6c.5 0 1.1-.2 1.5-.6.8-.8.8-2.1 0-3z" />
</svg>